<svg xmlns="http://www.w3.org/2000/svg" viewBox="0 0 86.92 64.98"><defs><style>.cls-1{fill:#018ec0;}.cls-2{fill:#8ec1a1;}.cls-3{fill:#feeb01;}.cls-4{fill:#59a36e;}.cls-5{fill:#016ab3;}.cls-6{fill:#026ab3;}.cls-7{fill:#feeb04;}.cls-8{fill:#5ca470;}.cls-9{fill:#038fc0;}.cls-10{fill:#076cb4;}.cls-11{fill:#feed1b;}.cls-12{fill:#0061ae;}.cls-13{fill:#fefef8;}.cls-14{fill:#f6f9fc;}</style></defs><g id="Camada_2" data-name="Camada 2"><g id="Camada_2-2" data-name="Camada 2"><path class="cls-1" d="M43.87,1.91a60.49,60.49,0,0,0-2.44,28.94c.31,2.21,2,5-.08,6.56S37,36.54,35,35.61C25.62,31.25,16,28.73,5.5,30.05c-.93.12-2.51,1.19-2.7-.83a2.44,2.44,0,0,1,1.86-2.66C7.09,26,9.59,25.28,12,25.4c13.54.67,20.87-6.63,24.84-18.6a72.25,72.25,0,0,1,3-6.8h4A1.24,1.24,0,0,1,43.87,1.91Z"/><path class="cls-2" d="M43.87,1.91l0-1.91h5l-.15,1.07c-1.11,1.25-2.59,1.16-4.06,1.1A1,1,0,0,1,43.87,1.91Z"/><path class="cls-3" d="M8.6,31.85c9.29.67,17.93,2.84,25.62,7.92,5,3.28,5,4.73.13,7.69C29,50.68,23.6,54,17.84,56.31c-5.08,2-10.37-.65-15.53-1.46-.44-.07-.94-1-1.08-1.53-1.5-6.41-1.8-12.92.09-19.21C2.42,30.48,6.26,32.67,8.6,31.85Z"/><path class="cls-4" d="M44.68,2.17c1-1.64,2.62-1.06,4.06-1.1,1.44,3.17,3,6.28,4.27,9.53,3.77,10.12,11.49,14,21.75,14.2a56.32,56.32,0,0,1,6.46.56c2.31.3,3.32,1.81,3.55,4.58C72.1,27.16,60.92,31.15,50,36.37c-3.39,1.63-4.86.45-4.07-3.13C48.21,22.76,47.18,12.45,44.68,2.17Z"/><path class="cls-5" d="M65.74,62.79c-5.84,1.77-12,.65-17.89,1.87C46,65,46,63.18,46.24,61.84c1-5.09.37-10.08-1.18-15.29A73.32,73.32,0,0,1,58.27,47.7C66.6,49.42,68,51.65,66,60.14c-.86-.92-1-1.86-.55-2.38A10.88,10.88,0,0,0,65.74,62.79Z"/><path class="cls-6" d="M46.19,42.22c9.51-5.67,19.33-10,30.44-10.41a41.31,41.31,0,0,1,6.45.56,3.81,3.81,0,0,1,3.75,3.84c.24,2.53-1.38,2.95-3.11,3.69-4.19,1.81-8.91,3.16-9.13,9.35C65.52,44.85,56.06,43,46.19,42.22Z"/><path class="cls-7" d="M40.24,47.54C41.63,53.17,39.93,58,40,62.9c0,1.59-1,1.84-2.33,1.83-2.15,0-4.32.07-6.47,0-1.57-.06-3.56.64-4.33-1.43C25,59,36.36,50.12,40.24,47.54Z"/><path class="cls-8" d="M65.32,7.86c4,.43,6.23,2.75,6.19,6.47-.06,8.3-12.72,8-12.53-.29C59.26,10.18,61.59,8.22,65.32,7.86Z"/><path class="cls-9" d="M22.7,20.48a6.64,6.64,0,0,1-6.41-6.39C16.83,6.15,28.54,5.74,28.9,14A6.27,6.27,0,0,1,22.7,20.48Z"/><path class="cls-10" d="M83.39,61.91C78.92,53,79.72,48.32,86.56,43.22,87.57,49.75,86.41,55.69,83.39,61.91Z"/><path class="cls-11" d="M15.86,64.22C5.79,65.63,5.46,65.51,3.52,60,8.09,59.47,11.88,60.75,15.86,64.22Z"/><path class="cls-12" d="M65.74,62.79c-1.47-1.92-.85-3.95-.12-6,.14,1.12.27,2.23.41,3.35C65.93,61,65.83,61.9,65.74,62.79Z"/><path class="cls-13" d="M16,43c7.92.78,7.63,11.67-.2,11.68-3.43,0-5.6-2.28-5.67-5.65C10,45.3,12.51,43.5,16,43Z"/><path class="cls-14" d="M65.07,39.24a6.07,6.07,0,0,0,.51-.84c1.12-3,3.27-4.18,6.28-3.27A4.18,4.18,0,0,1,75,39.68c-.19,2.65-2,4.17-4.33,4.8-3.77,1-4.27-2.54-5.6-4.9Z"/><path class="cls-12" d="M65.07,39.24l0,.34c-.08.32-.17.92-.25.92-.92,0-.92,0-.91-1.13s0-1.12.93-1C64.92,38.33,65,38.92,65.07,39.24Z"/></g></g></svg>