<svg xmlns="http://www.w3.org/2000/svg" viewBox="0 0 86.92 64.98"><defs><style>.cls-1{fill:#fafafa;}</style></defs><g id="Camada_2" data-name="Camada 2"><g id="Camada_2-2" data-name="Camada 2"><path class="cls-1" d="M34.22,39.77c-7.69-5.08-16.33-7.25-25.62-7.92-2.34.82-6.18-1.37-7.28,2.26C-.57,40.4-.27,46.91,1.23,53.32c.14.58.64,1.46,1.08,1.53,5.16.81,10.45,3.49,15.53,1.46C23.6,54,29,50.68,34.35,47.46,39.26,44.5,39.18,43.05,34.22,39.77ZM15.75,54.67c-3.43,0-5.6-2.28-5.67-5.65C10,45.3,12.51,43.5,16,43,23.87,43.77,23.58,54.66,15.75,54.67Z"/><path class="cls-1" d="M45.92,33.24c-.79,3.58.68,4.76,4.07,3.13,10.93-5.22,22.11-9.21,34.78-6.43-.23-2.77-1.24-4.28-3.55-4.58a56.32,56.32,0,0,0-6.46-.56c-10.25-.19-18-4.08-21.75-14.2-1.22-3.25-2.83-6.36-4.27-9.53h0L48.89,0h-9a69.85,69.85,0,0,0-3,6.8c-4,12-11.3,19.27-24.84,18.6-2.43-.12-4.93.63-7.36,1.16A2.44,2.44,0,0,0,2.8,29.22c.19,2,1.77,1,2.7.83C16,28.73,25.62,31.25,35,35.61c2,.93,4.22,3.38,6.34,1.8s.39-4.35.08-6.56A60.49,60.49,0,0,1,43.87,1.91a1,1,0,0,0,.81.26C47.18,12.45,48.21,22.76,45.92,33.24Z"/><path class="cls-1" d="M58.27,47.7a73.32,73.32,0,0,0-13.21-1.15c1.55,5.21,2.2,10.2,1.18,15.29C46,63.18,46,65,47.85,64.66c5.92-1.22,12-.1,17.89-1.87.09-.89.19-1.77.29-2.65h0C68,51.65,66.6,49.42,58.27,47.7Z"/><path class="cls-1" d="M86.83,36.21a3.81,3.81,0,0,0-3.75-3.84,41.31,41.31,0,0,0-6.45-.56c-11.11.39-20.93,4.74-30.44,10.41,9.87.81,19.33,2.63,28.4,7,.22-6.19,4.94-7.54,9.13-9.35C85.45,39.16,87.07,38.74,86.83,36.21ZM70.65,44.48c-3.77,1-4.27-2.54-5.6-4.9l0-.34a6.07,6.07,0,0,0,.51-.84c1.12-3,3.27-4.18,6.28-3.27A4.18,4.18,0,0,1,75,39.68C74.79,42.33,73,43.85,70.65,44.48Z"/><path class="cls-1" d="M26.84,63.29c.77,2.07,2.76,1.37,4.33,1.43,2.15.08,4.32,0,6.47,0,1.29,0,2.35-.24,2.33-1.83,0-4.88,1.66-9.73.27-15.36C36.36,50.12,25,59,26.84,63.29Z"/><path class="cls-1" d="M71.51,14.33c0-3.72-2.22-6-6.19-6.47C61.59,8.22,59.26,10.18,59,14,58.79,22.38,71.45,22.63,71.51,14.33Z"/><path class="cls-1" d="M22.7,20.48A6.27,6.27,0,0,0,28.9,14c-.36-8.29-12.07-7.88-12.61.06A6.64,6.64,0,0,0,22.7,20.48Z"/><path class="cls-1" d="M86.56,43.22c-6.84,5.1-7.64,9.75-3.17,18.69C86.41,55.69,87.57,49.75,86.56,43.22Z"/><path class="cls-1" d="M3.52,60c1.94,5.54,2.27,5.66,12.34,4.25C11.88,60.75,8.09,59.47,3.52,60Z"/></g></g></svg>